<?xml version="1.0" encoding="iso-8859-1"?>
<!-- Generator: Adobe Illustrator 16.0.0, SVG Export Plug-In . SVG Version: 6.00 Build 0)  -->
<!DOCTYPE svg PUBLIC "-//W3C//DTD SVG 1.1//EN" "http://www.w3.org/Graphics/SVG/1.1/DTD/svg11.dtd">
<svg version="1.1" xmlns="http://www.w3.org/2000/svg" xmlns:xlink="http://www.w3.org/1999/xlink" x="0px" y="0px" width="299px"
	 height="220.011px" viewBox="0 0 299 220.011" style="enable-background:new 0 0 299 220.011;" xml:space="preserve">
<g id="Layer_2">
</g>
<g id="Layer_1">
	<rect y="64.011" style="fill:#6BAD45;" width="156" height="156"/>
	<rect x="13.877" y="154.082" style="fill:#6BAD45;" width="141.14" height="57.489"/>
	<g>
		<path style="fill:#6BAD45;" d="M199.324,0c-0.123,0.069,1.011,5.073,1.061,5.407c1.366,9.001,1.293,18.676-1.974,27.29
			c-1.95,5.131-5.109,9.755-9.504,13.157c-5.601,4.342-13.526,4.541-18.651,9.182c-2.166,1.965-4.443,3.194-7.114,4.492
			c-4.688,2.276-6.348,3.622-7.664,8.707c-2.54,0.626-1.356-2.299-2.257-3.349c-1.231-1.437-4.537-0.905-6.441-0.812
			c5.824-0.285,9.751-2.251,14.444-5.257c2.981-1.907,9.239-3.099,9.472-7.382c0.158-2.788-2.952-6.566-3.62-9.396
			c-0.896-3.8-0.704-7.743,0.409-11.476C171.77,16.285,186.891,6.716,199.324,0"/>
		<path style="fill:#6BAD45;" d="M163.486,57.941c0,0,5.744-15.709-17.241-26.338C146.245,31.604,148.377,58.114,163.486,57.941"/>
	</g>
	<path style="fill:#6BAD45;" d="M189.46,206.098c-2.201,0.74-6.373,1.753-10.542,1.753c-5.761,0-9.931-1.43-12.835-4.194
		c-2.907-2.677-4.499-6.736-4.449-11.299c0.045-10.33,7.684-16.231,18.036-16.231c4.075,0,7.215,0.782,8.76,1.521l-1.499,5.626
		c-1.732-0.737-3.89-1.338-7.355-1.338c-5.951,0-10.447,3.321-10.447,10.053c0,6.41,4.073,10.191,9.933,10.191
		c1.643,0,2.949-0.187,3.516-0.464v-6.499h-4.874v-5.489h11.758V206.098"/>
	<path style="fill:#6BAD45;" d="M202.114,190.236h2.81c3.56,0,5.668-1.751,5.668-4.475c0-2.857-1.966-4.286-5.247-4.332
		c-1.735,0-2.718,0.141-3.23,0.229V190.236 M195.036,176.863c2.298-0.367,5.715-0.643,9.514-0.643c4.683,0,7.966,0.689,10.213,2.442
		c1.871,1.476,2.902,3.643,2.902,6.503c0,3.965-2.854,6.688-5.574,7.654v0.136c2.201,0.878,3.422,2.951,4.216,5.811
		c0.984,3.505,1.968,7.562,2.579,8.762h-7.312c-0.515-0.875-1.264-3.412-2.202-7.24c-0.843-3.873-2.199-4.934-5.105-4.98h-2.152
		v12.221h-7.078V176.863z"/>
	<polyline style="fill:#6BAD45;" points="241.608,194.388 229.984,194.388 229.984,201.766 242.962,201.766 242.962,207.528 
		222.817,207.528 222.817,176.45 242.311,176.45 242.311,182.214 229.984,182.214 229.984,188.666 241.608,188.666 241.608,194.388 
			"/>
	<polyline style="fill:#6BAD45;" points="266.627,194.388 255.003,194.388 255.003,201.766 267.983,201.766 267.983,207.528 
		247.837,207.528 247.837,176.45 267.326,176.45 267.326,182.214 255.003,182.214 255.003,188.666 266.627,188.666 266.627,194.388 
			"/>
	<path style="fill:#6BAD45;" d="M272.858,207.528V176.45h8.341l6.557,11.385c1.877,3.278,3.747,7.152,5.152,10.654h0.143
		c-0.469-4.102-0.609-8.299-0.609-12.957v-9.082H299v31.078h-7.497l-6.746-11.99c-1.875-3.316-3.932-7.332-5.48-10.976l-0.143,0.046
		c0.188,4.104,0.281,8.485,0.281,13.558v9.362H272.858"/>
	<path style="fill:#FFFFFF;" d="M22.518,199.384c1.805,1.079,5.217,2.22,8.052,2.22c3.48,0,5.026-1.396,5.026-3.426
		c0-2.091-1.288-3.169-5.152-4.5c-6.121-2.093-8.7-5.391-8.637-9.004c0-5.454,4.576-9.704,11.858-9.704
		c3.475,0,6.505,0.893,8.309,1.84l-1.545,5.518c-1.354-0.759-3.867-1.774-6.637-1.774c-2.834,0-4.379,1.332-4.379,3.233
		c0,1.966,1.482,2.917,5.475,4.31c5.668,2.03,8.311,4.884,8.376,9.448c0,5.578-4.446,9.637-12.757,9.637
		c-3.801,0-7.218-0.889-9.534-2.156L22.518,199.384"/>
	<path style="fill:#FFFFFF;" d="M55.951,191.143c0,5.958,2.966,10.459,7.796,10.459c4.51,0,7.668-4.377,7.668-10.587
		c0-4.818-2.19-10.335-7.605-10.335C58.207,180.68,55.951,186.004,55.951,191.143 M79.598,190.824
		c0,11.347-8.119,16.421-16.105,16.421c-8.895,0-15.723-6.024-15.723-15.911c0-10.148,6.767-16.364,16.236-16.364
		C73.346,174.97,79.598,181.438,79.598,190.824z"/>
	<rect x="86.103" y="161.533" style="fill:#FFFFFF;" width="7.988" height="45.017"/>
	<path style="fill:#FFFFFF;" d="M102.657,206.55v-30.879h7.99v30.879H102.657z M111.097,167.049c0,2.345-1.74,4.185-4.51,4.185
		c-2.641,0-4.381-1.84-4.381-4.185c0-2.407,1.804-4.249,4.444-4.249C109.356,162.8,111.029,164.642,111.097,167.049z"/>
	<path style="fill:#FFFFFF;" d="M140.152,188.541c0-0.635-0.067-1.396-0.196-2.027c-0.709-3.047-3.221-5.514-6.827-5.514
		c-5.087,0-7.924,4.433-7.924,10.204c0,5.643,2.837,9.764,7.86,9.764c3.219,0,6.055-2.155,6.829-5.518
		c0.19-0.696,0.258-1.455,0.258-2.283V188.541 M148.074,161.533v36.326c0,3.173,0.128,6.596,0.261,8.69h-7.087l-0.322-4.886h-0.131
		c-1.866,3.427-5.667,5.581-10.242,5.581c-7.472,0-13.4-6.277-13.4-15.784c-0.064-10.337,6.511-16.491,14.046-16.491
		c4.317,0,7.409,1.78,8.825,4.06h0.129v-17.496H148.074z"/>
</g>
</svg>
