<?xml version="1.0" encoding="UTF-8"?>
<!DOCTYPE svg PUBLIC "-//W3C//DTD SVG 1.1//EN" "http://www.w3.org/Graphics/SVG/1.1/DTD/svg11.dtd">
<svg xmlns="http://www.w3.org/2000/svg" version="1.1" width="1536px" height="474px" style="shape-rendering:geometricPrecision; text-rendering:geometricPrecision; image-rendering:optimizeQuality; fill-rule:evenodd; clip-rule:evenodd" xmlns:xlink="http://www.w3.org/1999/xlink">
<g><path style="opacity:0.997" fill="#db353a" d="M 215.5,-0.5 C 229.5,-0.5 243.5,-0.5 257.5,-0.5C 338.107,9.20597 399.607,48.5393 442,117.5C 477.342,182.275 483.009,249.609 459,319.5C 421.429,409.538 354.262,460.871 257.5,473.5C 243.5,473.5 229.5,473.5 215.5,473.5C 141.656,465.005 83.1562,430.672 40,370.5C 16.8412,335.852 3.34117,297.852 -0.5,256.5C -0.5,243.167 -0.5,229.833 -0.5,216.5C 10.9703,124.205 58.637,58.0381 142.5,18C 166.047,8.19707 190.38,2.0304 215.5,-0.5 Z"/></g>
<g><path style="opacity:1" fill="#fdfdfd" d="M 307.5,73.5 C 337.81,72.3989 360.643,84.7322 376,110.5C 388.203,137.782 385.536,163.448 368,187.5C 342.258,213.99 312.758,219.156 279.5,203C 251.416,183.64 240.916,157.14 248,123.5C 258.268,95.3947 278.102,78.728 307.5,73.5 Z"/></g>
<g><path style="opacity:0.945" fill="#5f5f61" d="M 1170.5,214.5 C 1188.11,215.609 1196.28,224.943 1195,242.5C 1190.7,256.574 1181.2,262.408 1166.5,260C 1154.28,255.41 1148.78,246.577 1150,233.5C 1152.81,222.7 1159.65,216.367 1170.5,214.5 Z"/></g>
<g><path style="opacity:0.967" fill="#5f5f61" d="M 1064.5,219.5 C 1073.35,218.874 1082.01,219.707 1090.5,222C 1096.06,224.562 1099.89,228.728 1102,234.5C 1103.32,282.441 1103.99,330.441 1104,378.5C 1105.61,387.111 1110.78,391.945 1119.5,393C 1126.16,393.5 1132.83,393.666 1139.5,393.5C 1143.35,414.631 1134.68,425.631 1113.5,426.5C 1101.53,426.543 1090.53,423.376 1080.5,417C 1070.95,408.721 1065.79,398.221 1065,385.5C 1064.5,330.168 1064.33,274.834 1064.5,219.5 Z"/></g>
<g><path style="opacity:0.961" fill="#5f5f61" d="M 607.5,225.5 C 621.822,225.032 635.822,226.865 649.5,231C 671.411,240.466 679.078,256.966 672.5,280.5C 654.827,264.78 634.16,258.613 610.5,262C 602.049,262.483 594.383,265.15 587.5,270C 579.185,280.051 579.518,289.717 588.5,299C 593.599,301.883 598.933,304.217 604.5,306C 618.302,309.16 631.968,312.827 645.5,317C 672.197,328.556 683.03,348.723 678,377.5C 672.393,402.442 657.226,418.275 632.5,425C 609.251,430.717 586.585,429.05 564.5,420C 554.521,414.691 548.354,406.524 546,395.5C 545.5,387.507 545.334,379.507 545.5,371.5C 550.414,373.3 554.747,376.134 558.5,380C 580.026,392.701 602.693,395.367 626.5,388C 637.645,381.532 641.479,372.032 638,359.5C 636.207,356.705 634.04,354.205 631.5,352C 626.156,348.885 620.489,346.552 614.5,345C 597.524,342.007 581.191,337.007 565.5,330C 544.746,317.108 537.246,298.608 543,274.5C 551.221,249.782 568.055,234.282 593.5,228C 598.315,227.197 602.981,226.363 607.5,225.5 Z"/></g>
<g><path style="opacity:0.96" fill="#5f5f61" d="M 730.5,235.5 C 734.5,235.5 738.5,235.5 742.5,235.5C 742.5,247.167 742.5,258.833 742.5,270.5C 760.167,270.5 777.833,270.5 795.5,270.5C 795.856,278.238 795.356,285.905 794,293.5C 790.33,299.921 784.83,303.755 777.5,305C 765.838,305.5 754.171,305.667 742.5,305.5C 742.333,327.836 742.5,350.169 743,372.5C 745.358,385.85 753.358,392.183 767,391.5C 776.959,391.467 786.459,389.467 795.5,385.5C 795.666,391.842 795.5,398.175 795,404.5C 791.818,418.372 782.985,425.538 768.5,426C 747.147,428.772 728.98,422.605 714,407.5C 708.497,399.328 705.164,390.328 704,380.5C 703.333,342.5 703.333,304.5 704,266.5C 707.737,251.626 716.57,241.293 730.5,235.5 Z"/></g>
<g><path style="opacity:0.961" fill="#5f5f61" d="M 873.5,266.5 C 899.355,265.675 919.189,276.008 933,297.5C 939.067,309.841 941.067,322.841 939,336.5C 935.027,349.136 926.527,356.969 913.5,360C 904.657,362.359 895.657,363.692 886.5,364C 872.155,364.167 857.822,364.667 843.5,365.5C 850.573,385.974 865.073,395.64 887,394.5C 903.291,395.401 917.791,390.901 930.5,381C 931.793,380.51 933.127,380.343 934.5,380.5C 935.756,391.448 933.922,401.782 929,411.5C 923.923,417.288 917.756,421.455 910.5,424C 882.7,432.362 856.7,428.695 832.5,413C 806.14,389.912 796.974,361.078 805,326.5C 814.08,290.575 836.914,270.575 873.5,266.5 Z M 866.5,300.5 C 872.509,300.334 878.509,300.501 884.5,301C 899.655,304.488 905.155,313.654 901,328.5C 896.686,332.607 891.52,334.774 885.5,335C 871.526,336.2 857.526,336.7 843.5,336.5C 843.124,319.232 850.79,307.232 866.5,300.5 Z"/></g>
<g><path style="opacity:0.966" fill="#5f5f61" d="M 1299.5,266.5 C 1322.27,265.473 1341.44,273.14 1357,289.5C 1365.28,300.413 1369.95,312.747 1371,326.5C 1371.5,359.165 1371.67,391.832 1371.5,424.5C 1362.98,425.115 1354.65,424.282 1346.5,422C 1341,419.167 1336.83,415 1334,409.5C 1332.7,383.549 1332.04,357.549 1332,331.5C 1330.7,313.036 1320.87,303.036 1302.5,301.5C 1288.26,302.903 1279.43,310.57 1276,324.5C 1274.57,357.809 1274.07,391.142 1274.5,424.5C 1265.98,425.115 1257.65,424.282 1249.5,422C 1242.24,418.328 1237.74,412.495 1236,404.5C 1235.33,377.833 1235.33,351.167 1236,324.5C 1242.42,289.037 1263.59,269.704 1299.5,266.5 Z"/></g>
<g><path style="opacity:0.967" fill="#5f5f61" d="M 1535.5,365.5 C 1535.5,381.833 1535.5,398.167 1535.5,414.5C 1528.59,448.078 1508.26,467.744 1474.5,473.5C 1465.5,473.5 1456.5,473.5 1447.5,473.5C 1434.2,471.563 1422.7,465.896 1413,456.5C 1410.81,453.446 1409.14,450.112 1408,446.5C 1407.17,438.147 1407.33,429.813 1408.5,421.5C 1425.41,435.065 1444.75,440.565 1466.5,438C 1486.97,435.032 1497.3,423.199 1497.5,402.5C 1497.23,398.14 1496.73,393.807 1496,389.5C 1489.41,399.219 1480.25,405.052 1468.5,407C 1439.34,411.077 1416.84,400.91 1401,376.5C 1391.49,355.035 1391.15,333.369 1400,311.5C 1414.28,281.79 1438.11,266.79 1471.5,266.5C 1506.73,267.903 1527.57,285.903 1534,320.5C 1534.17,335.672 1534.67,350.672 1535.5,365.5 Z M 1464.5,301.5 C 1479.74,301.027 1489.57,308.027 1494,322.5C 1497.76,337.626 1495.43,351.626 1487,364.5C 1476.8,374.407 1464.97,376.907 1451.5,372C 1439.64,364.945 1433.98,354.445 1434.5,340.5C 1434.86,319.831 1444.86,306.831 1464.5,301.5 Z"/></g>
<g><path style="opacity:0.956" fill="#5f5f61" d="M 1012.5,268.5 C 1040.85,267.175 1053.18,280.508 1049.5,308.5C 1044.87,307.342 1040.2,306.176 1035.5,305C 1016.4,300.49 1004.9,307.657 1001,326.5C 1000.5,359.165 1000.33,391.832 1000.5,424.5C 991.653,425.126 982.986,424.293 974.5,422C 967.903,419.737 963.736,415.237 962,408.5C 960.366,379.882 960.033,351.215 961,322.5C 963.564,290.26 980.731,272.26 1012.5,268.5 Z"/></g>
<g><path style="opacity:0.965" fill="#5f5f61" d="M 1153.5,273.5 C 1162.77,272.74 1171.77,273.907 1180.5,277C 1187.17,281.351 1191,287.517 1192,295.5C 1192.03,325.215 1192.7,354.881 1194,384.5C 1195.89,388.058 1198.73,390.558 1202.5,392C 1209.09,393.329 1215.76,393.829 1222.5,393.5C 1225.54,420.846 1213.54,431.346 1186.5,425C 1168.14,420.639 1157.31,409.139 1154,390.5C 1153.5,351.501 1153.33,312.501 1153.5,273.5 Z"/></g>
</svg>
